<svg width="283" height="120" viewBox="0 0 283 120" xmlns="http://www.w3.org/2000/svg"><g fill="none" fill-rule="evenodd"><path d="M84.032 95.96a.395.395 0 0 1-.17.04h-4.51a.313.313 0 0 1-.17-.04l-1.191-.754a.304.304 0 0 1-.142-.246v-6.742a.189.189 0 0 0-.099-.164l-.95-.614V86.4h3.872v7.713c0 .163.141.3.311.3h1.234c.17 0 .311-.137.311-.3V86.4H86.4v1.04l-.95.614c-.057.028-.085.096-.085.164v6.742a.302.302 0 0 1-.142.246l-1.191.753M95.112 96a.411.411 0 0 1-.387-.233L92.1 90.065v4.238l1.061.657V96H88.8v-1.04l.99-.601c.058-.027.087-.097.087-.164v-5.977c0-.054-.044-.122-.101-.164l-.961-.614V86.4h4.246c.172 0 .33.096.387.246l2.481 5.566v-4.144l-1.033-.643V86.4H99.2v1.025l-.946.574a.193.193 0 0 0-.087.165V96h-3.055M100.8 96v-1.04l.927-.628c.055-.042.097-.11.097-.165v-5.949a.19.19 0 0 0-.097-.164l-.927-.614V86.4h4.8v1.04l-.927.614a.19.19 0 0 0-.096.164v5.949c0 .055.028.123.082.165l.941.628V96h-4.8M110.103 96s-1.085-5.758-1.406-7.973a.285.285 0 0 0-.134-.191L108 87.44V86.4h3.12l1.34 8.013 1.206-8.013h3.134v1.04l-.576.382a.327.327 0 0 0-.12.205c-.335 2.202-1.42 7.973-1.42 7.973h-4.58M119.2 96v-1.04l.975-.601c.058-.041.101-.097.101-.164v-5.977c0-.068-.028-.122-.1-.164l-.976-.614V86.4h8.8v2.762h-2.91v-.876c0-.163-.145-.3-.319-.3h-1.585v2.27c0 .083.073.15.16.15h2.327v1.587h-2.327c-.087 0-.16.068-.16.15v2.27h1.585c.174 0 .32-.137.32-.3v-.875H128V96h-8.8M136.071 88.286c0-.163-.125-.3-.308-.3h-1.55v2.722h1.55c.183 0 .308-.137.308-.316v-2.106zm.363 7.714a.39.39 0 0 1-.377-.26l-1.256-3.446h-.588V96H130.4v-1.053l.95-.602c.056-.027.084-.096.084-.164v-5.963a.216.216 0 0 0-.083-.164l-.951-.614V86.4h6.956a.3.3 0 0 1 .168.055l1.187.724a.31.31 0 0 1 .14.26v3.651a.291.291 0 0 1-.113.233l-1.27.984.74 1.97c.014.055.07.109.125.15l.867.533V96h-2.766zM147.54 95.945a.4.4 0 0 1-.218.055H141.6v-2.762h2.698v.875c0 .163.135.3.299.3h1.192c.163 0 .299-.137.299-.3v-1.176a.207.207 0 0 0-.136-.192l-4.094-1.518c-.15-.055-.244-.22-.244-.383v-3.337c0-.136.067-.273.176-.342l1.085-.696a.356.356 0 0 1 .203-.069h5.722v2.762h-2.712v-.876c0-.163-.136-.3-.3-.3h-1.178a.302.302 0 0 0-.299.3v1.122c0 .082.055.165.137.192l4.08 1.517c.163.055.258.206.258.384v3.405c0 .136-.068.26-.176.341l-1.07.698M151.2 96v-1.04l.928-.628c.055-.042.095-.11.095-.165v-5.949a.189.189 0 0 0-.095-.164l-.928-.614V86.4h4.8v1.04l-.926.614a.189.189 0 0 0-.097.164v5.949c0 .055.028.123.083.165l.94.628V96h-4.8M160.692 96v-1.04l.965-.601c.058-.041.101-.097.101-.164v-6.072c0-.069-.071-.137-.144-.137h-.533c-.173 0-.317.137-.317.3v1.328H158.4V86.4h9.6v3.214h-2.364v-1.328c0-.163-.144-.3-.317-.3h-.533c-.086 0-.145.068-.145.11v6.099c0 .067.03.123.087.164l.966.601V96h-5.002M172.707 96v-1.04l.951-.588a.23.23 0 0 0 .116-.191v-2.065l-2.48-4.076a.127.127 0 0 0-.087-.081l-.807-.52V86.4h3.041l1.76 3.364 1.758-3.364H180v1.04l-.806.519a.129.129 0 0 0-.087.081l-2.479 4.076v2.05c0 .07.043.124.1.166l.967.628V96h-4.988M190.902 88.383c0-.22-.19-.397-.434-.397h-.923c-.23 0-.433.178-.433.397v5.633c0 .22.203.384.433.384h.923c.244 0 .434-.165.434-.384v-5.633zm1.41 7.562a.294.294 0 0 1-.163.055h-4.298a.337.337 0 0 1-.163-.055l-1.153-.739a.31.31 0 0 1-.135-.259v-7.494c0-.11.053-.205.135-.26l1.153-.738a.329.329 0 0 1 .163-.055h4.298c.068 0 .122.027.163.055l1.153.739c.082.054.135.15.135.259v7.494a.31.31 0 0 1-.135.26l-1.153.738zM196 96v-1.04l.975-.601c.058-.041.101-.097.101-.164v-5.977a.194.194 0 0 0-.087-.164L196 87.44V86.4h8.8v2.762h-2.909v-.876c0-.163-.145-.3-.32-.3h-1.586v2.216c0 .109.088.204.22.204h2.269v1.587h-2.27c-.13 0-.219.096-.219.205V96H196M10.681 120a.69.69 0 0 1-.656-.426L5.584 109.12v7.773l1.796 1.203V120H0v-1.905l1.675-1.104c.096-.05.145-.175.145-.3v-10.956c0-.1-.072-.226-.17-.301l-1.626-1.129V102.4H7.21c.291 0 .558.176.654.452l4.2 10.204v-7.598l-1.747-1.177V102.4H17.6v1.88l-1.603 1.053a.364.364 0 0 0-.146.302V120h-5.17M28.002 106.035c0-.4-.337-.727-.77-.727h-1.64c-.41 0-.77.327-.77.727v10.33c0 .401.36.702.77.702h1.64c.433 0 .77-.3.77-.702v-10.33zM30.51 119.9a.5.5 0 0 1-.29.1H22.58a.57.57 0 0 1-.289-.1l-2.05-1.354a.576.576 0 0 1-.24-.476v-13.74c0-.2.096-.376.24-.476l2.05-1.354a.58.58 0 0 1 .289-.1h7.641c.121 0 .218.05.29.1l2.048 1.354a.58.58 0 0 1 .242.477v13.74c0 .2-.097.375-.242.475L30.51 119.9zM45.795 105.86c0-.3-.217-.552-.53-.552h-2.68v4.99h2.68c.313 0 .53-.25.53-.577v-3.86zm.628 14.14a.676.676 0 0 1-.652-.476l-2.171-6.318h-1.014V120H36v-1.93l1.64-1.103c.097-.05.145-.175.145-.301v-10.931c0-.1-.048-.226-.146-.301L36 104.305V102.4h12.014c.121 0 .218.05.29.1l2.051 1.33c.145.1.241.275.241.475V111a.541.541 0 0 1-.193.426l-2.196 1.805 1.28 3.61c.024.1.12.201.217.276l1.496.978V120h-4.777zM57.42 120v-1.905l1.61-1.104c.096-.075.168-.175.168-.3V105.56c0-.126-.12-.252-.241-.252h-.89c-.287 0-.527.252-.527.553v2.431H53.6V102.4h16v5.892h-3.94v-2.431a.546.546 0 0 0-.53-.553h-.888c-.144 0-.24.126-.24.2v11.182c0 .126.048.226.144.301l1.61 1.104V120H57.42M81.255 120v-6.97c0-.2-.173-.375-.37-.375h-2.57a.367.367 0 0 0-.37.375V120H71.2v-1.905l1.68-1.153a.359.359 0 0 0 .149-.3v-10.907a.35.35 0 0 0-.173-.301l-1.656-1.129V102.4h6.745v6.97c0 .2.149.376.37.376h2.57c.197 0 .37-.175.37-.376v-6.97H88v1.905l-1.656 1.129c-.123.05-.172.175-.172.301v10.907c0 .099.05.225.148.3l1.68 1.153V120h-6.745M90.4 120v-1.905l1.683-1.104c.101-.075.177-.175.177-.3v-10.956a.327.327 0 0 0-.177-.301l-1.683-1.129V102.4h15.2v5.065h-5.025v-1.604a.558.558 0 0 0-.553-.553h-2.737v4.163c0 .15.125.275.275.275h4.02v2.909h-4.02a.278.278 0 0 0-.275.275v4.163h2.737a.558.558 0 0 0 .553-.553v-1.604h5.025V120H90.4M117.795 105.86c0-.3-.217-.552-.53-.552h-2.679v4.99h2.679c.313 0 .53-.25.53-.577v-3.86zm.628 14.14a.676.676 0 0 1-.652-.476l-2.171-6.318h-1.014V120H108v-1.93l1.64-1.103c.097-.05.145-.175.145-.301v-10.931c0-.1-.048-.226-.145-.301l-1.64-1.129V102.4h12.015c.12 0 .217.05.29.1l2.05 1.33c.146.1.242.275.242.475V111a.541.541 0 0 1-.193.426l-2.196 1.805 1.28 3.61c.024.1.12.201.217.276l1.495.978V120h-4.777zM136.282 120a.69.69 0 0 1-.656-.426l-4.442-10.455v7.773l1.796 1.203V120h-7.38v-1.905l1.675-1.104c.096-.05.145-.175.145-.3v-10.956c0-.1-.072-.226-.17-.301l-1.626-1.129V102.4h7.186c.291 0 .559.176.655.452l4.2 10.204v-7.598l-1.748-1.177V102.4h7.283v1.88l-1.602 1.053a.364.364 0 0 0-.146.302V120h-5.17M162.472 119.9c-.072.076-.194.1-.29.1h-7.59c-.12 0-.193-.05-.29-.1l-2.06-1.354a.564.564 0 0 1-.242-.451v-13.79c0-.174.096-.35.241-.45l2.086-1.38a.507.507 0 0 1 .291-.075h7.588c.097 0 .218.025.29.075l2.062 1.38c.145.1.242.276.242.45v3.16h-4.849v-1.604a.548.548 0 0 0-.533-.553h-2.037a.549.549 0 0 0-.533.553v10.68c0 .3.243.552.533.552h2.037a.548.548 0 0 0 .533-.553v-1.604h4.825v3.159a.562.562 0 0 1-.243.45l-2.06 1.355M176.002 106.035c0-.4-.336-.727-.77-.727h-1.64c-.41 0-.77.327-.77.727v10.33c0 .401.36.702.77.702h1.64c.434 0 .77-.3.77-.702v-10.33zm2.508 13.865a.5.5 0 0 1-.29.1h-7.641a.57.57 0 0 1-.289-.1l-2.05-1.354a.576.576 0 0 1-.24-.476v-13.74c0-.2.097-.376.24-.476l2.05-1.354a.58.58 0 0 1 .289-.1h7.641c.121 0 .218.05.29.1l2.05 1.354c.143.1.24.277.24.477v13.74c0 .2-.097.375-.24.475l-2.05 1.354zM183.2 120v-1.905l1.686-1.104a.424.424 0 0 0 .177-.325v-10.907a.426.426 0 0 0-.177-.325l-1.686-1.129V102.4h6.87v14.667h2.768a.541.541 0 0 0 .553-.551v-1.831h5.009V120h-15.2M208.802 106.035c0-.4-.336-.727-.77-.727h-1.64c-.41 0-.77.327-.77.727v10.33c0 .401.36.702.77.702h1.64c.434 0 .77-.3.77-.702v-10.33zm2.508 13.865a.5.5 0 0 1-.29.1h-7.641a.57.57 0 0 1-.289-.1l-2.05-1.354a.576.576 0 0 1-.24-.476v-13.74c0-.2.097-.376.24-.476l2.05-1.354a.58.58 0 0 1 .289-.1h7.641c.121 0 .218.05.29.1l2.05 1.354c.143.1.24.277.24.477v13.74c0 .2-.097.375-.24.475l-2.05 1.354zM225.795 105.86c0-.3-.217-.552-.53-.552h-2.68v4.99h2.68c.313 0 .53-.25.53-.577v-3.86zm.628 14.14a.676.676 0 0 1-.651-.476l-2.172-6.318h-1.014V120H216v-1.93l1.64-1.103c.097-.05.146-.175.146-.301v-10.931c0-.1-.05-.226-.146-.301l-1.64-1.129V102.4h12.015c.12 0 .218.05.29.1l2.05 1.33c.145.1.241.275.241.475V111a.543.543 0 0 1-.192.426l-2.197 1.805 1.28 3.61c.024.1.12.201.217.276l1.496.978V120h-4.777zM241.807 105.284l-.609.024-1.047 8.124h2.825l-1.17-8.148zM243.926 120l-.536-3.66h-3.629l-.463 3.66H233.6v-1.905l1.12-.802c.073-.05.122-.151.146-.25l2.168-14.643h9.157l2.142 14.667a.523.523 0 0 0 .146.25l1.121.778V120h-5.674zM261.383 105.86a.556.556 0 0 0-.551-.552h-2.735v11.785h2.735c.301 0 .55-.252.55-.553v-10.68zm2.633 14.04a.372.372 0 0 1-.275.1H251.2v-1.905l1.68-1.104a.355.355 0 0 0 .176-.3v-10.956c0-.126-.05-.25-.15-.301l-1.706-1.153V102.4h12.516c.126 0 .225.025.3.075l2.133 1.38c.15.1.251.276.251.45v13.79a.56.56 0 0 1-.25.45l-2.134 1.355zM277.602 106.035c0-.4-.337-.727-.77-.727h-1.64c-.41 0-.77.327-.77.727v10.33c0 .401.36.702.77.702h1.64c.433 0 .77-.3.77-.702v-10.33zm2.508 13.865a.5.5 0 0 1-.29.1h-7.641a.568.568 0 0 1-.289-.1l-2.05-1.354a.576.576 0 0 1-.24-.476v-13.74c0-.2.096-.376.24-.476l2.05-1.354c.072-.05.192-.1.289-.1h7.641c.121 0 .218.05.29.1l2.048 1.354a.58.58 0 0 1 .242.477v13.74c0 .2-.097.375-.242.475l-2.048 1.354z" fill="#FFF"/><path d="M205.032 79.2l-126.865-.246c-.314-.001-.567-.304-.567-.678 0-.374.255-.676.568-.676l126.865.246c.314.001.568.304.567.678 0 .374-.254.676-.568.676M167.704 30.31s1.05 7.95-4.053 12.804c-1.368-.79-3.033-.67-3.033-.67s3.352 2.435 3.91 10.223c0 0 3.189-4.426 2.405-8.928.633.287 1.18.75 1.631 1.255 3.334-9.995-.86-14.684-.86-14.684zm-17.09 5.155c.095-1.195.815-1.06 1.465-.961 1.431.22 3.17-.535 2.923-2.428 1.404.161 1.905 1.158 1.905 1.158-.099-3.087-3.518-3.919-4.551-3.542 0 0-2.65 4.237-4.482 1.139-.738 1.653 1.426 2.651 2.74 4.634zm-14.488-4.634c-1.83 3.098-4.481-1.139-4.481-1.139-1.034-.377-4.453.455-4.552 3.542 0 0 .501-.997 1.906-1.158-.246 1.893 1.492 2.648 2.922 2.428.65-.1 1.37-.234 1.465.961 1.314-1.983 3.478-2.98 2.74-4.634zm-12.774 11.613s-1.665-.12-3.034.67c-5.102-4.854-4.052-12.804-4.052-12.804s-4.195 4.689-.86 14.684c.452-.505.997-.968 1.631-1.255-.783 4.502 2.404 8.928 2.404 8.928.559-7.788 3.91-10.223 3.91-10.223zm49.556-12.428c.11.168 5.54 10.528-.817 22.712l-.002-.006a20.785 20.785 0 0 1-1.609 2.583s-.66-2.667-2.014-4.084c-.539 7.26-11.84 12.282-11.84 12.282 8.694-8.37 3.583-16.759 3.583-16.759s.571 3.343-1.7 5.984c-2.083-9.052-6.968-12.026-6.968-12.026 1.927 2.496 2.336 10 2.057 13.245-.185 2.16-1.908 3.765-3.712 3.744-2.52-.03-4.757-1.162-5.401-1.806 0 0 2.748-.985 3.442-2.248-.56.102-1.259-2.13 2.426-2.207.26-.087.298-.27.209-.502l.004.001c-1.182-5.945-3.409-6.578-8.566-6.578-5.157 0-7.384.633-8.566 6.578h.004c-.088.23-.052.414.21.5 3.683.077 2.986 2.31 2.426 2.208.694 1.263 3.441 2.248 3.441 2.248-.643.644-2.88 1.775-5.402 1.806-1.803.021-3.526-1.584-3.712-3.744-.278-3.245.132-10.75 2.058-13.245 0 0-4.884 2.974-6.968 12.026-2.272-2.64-1.699-5.984-1.699-5.984s-5.112 8.388 3.582 16.759c0 0-11.3-5.023-11.84-12.282-1.354 1.417-2.013 4.084-2.013 4.084a20.79 20.79 0 0 1-1.61-2.583l-.002.006c-6.357-12.184-.928-22.544-.818-22.712-1.536.42-2.038.768-2.038.768s1.984-4.796 4.662-7.038c-.905-.028-2.624.576-2.624.576.48-1.403 2.99-5.711 5.895-8.09 1.166-1.274-2.622-2.927-4.124-1.082.822-3.657 6.421-2.328 6.421-2.328-5.175-4.377-10.376-.42-9.957 4.376-2.892-7.7 6.686-14.05 15.22-6.833 0 0 5.74-1.557 10.596-.65-.388-.459-1.44-1.234-1.44-1.234.443.055 4.505.194 6.506 3.265 0 0-7.443-1.165-11.27 2.298 0 0 5.005-1.636 9.28.77 0 0-2.16.23-2.963.887 0 0 2.099.187 2.91.874-3.293 0-4.537 1.245-4.537 1.245 4.579-.025 7.96 2.654 8.372 3.098.413-.444 3.793-3.123 8.372-3.098 0 0-1.245-1.245-4.538-1.245.812-.687 2.912-.874 2.912-.874-.804-.657-2.964-.887-2.964-.887 4.276-2.406 9.281-.77 9.281-.77-3.827-3.463-11.271-2.298-11.271-2.298 2.002-3.071 6.064-3.21 6.507-3.265 0 0-1.052.775-1.44 1.234 4.856-.907 10.595.65 10.595.65 8.534-7.218 18.112-.868 15.22 6.833.42-4.797-4.783-8.753-9.957-4.376 0 0 5.599-1.329 6.421 2.328-1.502-1.845-5.29-.192-4.124 1.082 2.904 2.379 5.414 6.687 5.895 8.09 0 0-1.719-.604-2.624-.576 2.678 2.242 4.662 7.038 4.662 7.038s-.501-.349-2.039-.768zM151.09 61.58a.383.383 0 0 1 .473.523c-1.11 2.438-1.093 5.545-3.073 7.45-2.234 2.153-3.957 2.087-3.957 2.087.166-.626.124-1.4-.304-1.768-.362 1.224-1.503 2.357-2.908 2.928.58-1.551-1.349-2.36-1.629-2.545l-.02.003c.092.172.636 1.25-.015 1.957-.946-1.404-1.885-.586-3.121-1.455-3.128-1.253-2.96-5.918-4.259-8.625-.15-.311.15-.648.472-.533 1.22.436 1.876 1.277 2.146 2.48.555 2.477 4.23 3.286 6.992 3.286 2.763 0 6.437-.81 6.992-3.286.274-1.224.948-2.074 2.21-2.502z" fill="#F4B740"/><path d="M151.176 32.376a.857.857 0 1 0 1.218-1.042 2.479 2.479 0 0 1-1.218 1.042zm-19.293-1.042a.858.858 0 1 0 1.217 1.042 2.477 2.477 0 0 1-1.217-1.042zm6.974 31.522c.853.29 1.939.49 3.198.49 1.26 0 2.336-.202 3.176-.492.057-.195.208-.369.471-.475.662-.267 1.895-1.336 2.066-2.164.028-.136.31-.144.365-.01.838 2.013-.407 3.649-1.49 3.734-.815.065-1.37-.282-1.433-.797a1.867 1.867 0 0 0-.612 1.128 12.05 12.05 0 0 1-2.515.26c-.895 0-1.749-.093-2.526-.258a1.977 1.977 0 0 0-.667-1.13c-.039.515-.57.86-1.395.797-1.096-.082-2.365-1.72-1.636-3.735.048-.133.33-.125.365.011.215.828 1.464 1.897 2.138 2.164.27.106.427.281.495.477zm9.742-14.462c-1.441-2.42-4.687-1.683-6.626-.956-1.938-.727-5.184-1.464-6.625.956 1.897-1.93 5.76.549 6.625.549.866 0 4.73-2.479 6.626-.549zM168.315.772c-2.991 0-6.02.88-8.82 2.556-2.381-.703-5.363-1.112-8.213-1.112-1.074 0-2.122.056-3.135.166a2.21 2.21 0 0 0-1.403-.559h-.153c-.079.004-.157.01-.233.021-1.64.212-3.14.817-4.236 1.318-1.104-.506-2.62-1.116-4.275-1.323a2.22 2.22 0 0 0-1.75.543 28.972 28.972 0 0 0-3.135-.166c-2.85 0-5.832.41-8.213 1.112-2.8-1.675-5.828-2.556-8.82-2.556-4.786 0-9.023 2.291-11.335 6.13-1.358 2.254-2.009 4.985-1.884 7.898.118 2.74.898 5.626 2.321 8.594-.823 1.453-1.447 2.923-1.48 3a2.214 2.214 0 0 0 .081 1.898c-1.035 2.204-2.413 5.814-2.875 10.174a2.22 2.22 0 0 0 .504 1.654c-.414 3.68-.253 7.311.48 10.824 1.153 5.516 3.705 10.578 7.586 15.045a2.218 2.218 0 0 0 2.29.674c2.369 2.24 7.172 5.603 16.655 9.016a2.2 2.2 0 0 0 .625.127c1.417 2.189 3.16 3.129 4.745 3.984 1.421.766 2.65 1.429 3.885 3.044a2.218 2.218 0 0 0 1.756.87h.004c.3 0 .592-.061.86-.174a2.218 2.218 0 0 0 2.849.405c.492-.312 1.05-.69 1.597-1.145a2.235 2.235 0 0 0 1.465-.026c5.765-2.133 7.373-4.482 8.847-6.966a2.221 2.221 0 0 0 .982-.12c9.508-3.42 14.338-6.788 16.72-9.02a2.32 2.32 0 0 0 .637.093c.633 0 1.246-.271 1.673-.762 3.881-4.467 6.433-9.529 7.585-15.045.734-3.513.895-7.144.481-10.824.38-.453.569-1.048.504-1.654-.462-4.36-1.84-7.972-2.876-10.175a2.21 2.21 0 0 0 .083-1.896c-.033-.077-.658-1.548-1.48-3 1.422-2.97 2.202-5.856 2.32-8.595.125-2.913-.525-5.644-1.883-7.899-2.31-3.838-6.549-6.129-11.336-6.129zm0 2.215c8.46 0 14.841 8.31 8.366 20.509 1.034 1.547 1.971 3.761 1.971 3.761s-.573-.123-.957-.123c-.074 0-.14.005-.195.015 0 0 3.07 4.832 3.783 11.55l-.825-.555c1.245 6.992.827 17.139-7.214 26.393-.222-1.077-.475-1.46-.475-1.46 0 .001-2.52 5.081-17.632 10.519 0 0-.092-.332-.753-1.185-2.319 3.448-2.508 5.838-9.096 8.276.193-.671.157-1.49-.375-1.918-.449 1.422-1.86 2.507-3.104 3.295.144-1.534-1.994-3.062-1.994-3.062s.376 1.317-.528 2.487c-3.545-4.636-7.42-3.113-9.597-9.083-.661.852-.668 1.19-.668 1.19-15.112-5.438-17.547-10.518-17.547-10.518s-.253.382-.475 1.46c-8.04-9.255-8.459-19.402-7.214-26.394l-.825.555c.713-6.718 3.783-11.55 3.783-11.55a1.051 1.051 0 0 0-.194-.015c-.385 0-.958.123-.958.123s.937-2.215 1.972-3.761c-6.476-12.198-.093-20.51 8.365-20.51 2.742 0 5.702.873 8.513 2.77 2.043-.741 5.18-1.325 8.52-1.325 1.666 0 3.383.145 5.04.488-.247-.44-.43-.883-.43-.883 1.832.23 3.548 1.1 4.55 1.576 1.002-.476 2.718-1.346 4.55-1.576 0 0-.183.443-.429.883 1.656-.343 3.374-.488 5.039-.488 3.341 0 6.477.584 8.52 1.326 2.81-1.897 5.772-2.77 8.513-2.77z" fill="#FFFFFE"/><path d="M120.674 42.972c-5.052-4.859-4.012-12.818-4.012-12.818s-4.153 4.694-.852 14.7c.448-.505.987-.97 1.615-1.256-.775 4.507 2.38 8.936 2.38 8.936.553-7.796 3.872-10.233 3.872-10.233s-1.649-.121-3.003.67zM133.1 32.376a2.477 2.477 0 0 1-1.217-1.042.858.858 0 1 0 1.217 1.042zm3.223-1.7c.73 1.655-1.412 2.654-2.712 4.639-.094-1.196-.807-1.062-1.451-.962-1.416.22-3.137-.535-2.893-2.43-1.39.16-1.887 1.159-1.887 1.159.099-3.091 3.483-3.923 4.506-3.546 0 0 2.625 4.24 4.437 1.14zm38.161-13.647c2.864-7.709-6.618-14.065-15.067-6.842 0 0-5.682-1.557-10.49-.649.385-.46 1.427-1.236 1.427-1.236-.439.056-4.46.195-6.442 3.269 0 0 7.37-1.166 11.158 2.3 0 0-4.955-1.637-9.187.771 0 0 2.138.23 2.933.889 0 0-2.078.186-2.882.874 3.26 0 4.493 1.247 4.493 1.247-4.534-.026-7.88 2.656-8.29 3.101-.408-.445-3.754-3.127-8.287-3.101 0 0 1.232-1.247 4.492-1.247-.804-.688-2.882-.874-2.882-.874.796-.658 2.933-.889 2.933-.889-4.232-2.408-9.187-.77-9.187-.77 3.79-3.467 11.158-2.301 11.158-2.301-1.981-3.074-6.003-3.213-6.441-3.269 0 0 1.041.777 1.426 1.236-4.807-.908-10.49.65-10.49.65-8.449-7.224-17.93-.868-15.067 6.84-.416-4.8 4.734-8.76 9.857-4.38 0 0-5.543-1.33-6.358 2.33 1.488-1.846 5.238-.191 4.084 1.084-2.876 2.381-5.36 6.694-5.836 8.098 0 0 1.701-.604 2.598-.576-2.652 2.244-4.616 7.045-4.616 7.045s.497-.35 2.018-.769c-.109.168-5.484 10.54.809 22.735l.002-.005a20.85 20.85 0 0 0 1.594 2.586s.653-2.67 1.994-4.088c.533 7.266 11.72 12.294 11.72 12.294-8.606-8.38-3.546-16.776-3.546-16.776s-.566 3.346 1.682 5.99c2.063-9.062 6.899-12.039 6.899-12.039-1.907 2.498-2.313 10.01-2.037 13.26.183 2.162 1.89 3.768 3.674 3.747 2.496-.03 4.711-1.163 5.348-1.808 0 0-2.72-.986-3.407-2.25.555.102 1.245-2.133-2.402-2.21-.258-.087-.295-.27-.207-.502l-.005.001c1.171-5.95 3.376-6.585 8.48-6.585 5.106 0 7.31.634 8.481 6.585h-.004c.088.23.051.414-.207.501-3.647.077-2.956 2.312-2.401 2.21-.687 1.264-3.408 2.25-3.408 2.25.637.645 2.852 1.777 5.348 1.808 1.785.021 3.49-1.585 3.674-3.748.276-3.249-.129-10.76-2.037-13.259 0 0 4.837 2.977 6.899 12.038 2.248-2.642 1.682-5.99 1.682-5.99s5.06 8.398-3.546 16.777c0 0 11.188-5.028 11.72-12.294 1.341 1.417 1.995 4.088 1.995 4.088a20.845 20.845 0 0 0 1.593-2.586l.002.005c6.293-12.196.918-22.567.809-22.735 1.522.42 2.018.769 2.018.769s-1.964-4.801-4.615-7.045c.896-.028 2.598.576 2.598.576-.477-1.404-2.961-5.717-5.837-8.098-1.153-1.275 2.596-2.93 4.083-1.083-.814-3.66-6.356-2.33-6.356-2.33 5.122-4.382 10.273-.422 9.856 4.38zM148.6 48.394c-1.441-2.42-4.687-1.683-6.626-.956-1.938-.727-5.184-1.464-6.625.956 1.897-1.93 5.76.549 6.625.549.866 0 4.73-2.479 6.626-.549zm-9.742 14.462c-.068-.196-.226-.37-.495-.477-.674-.267-1.923-1.336-2.138-2.164-.035-.136-.317-.144-.365-.01-.73 2.013.54 3.652 1.636 3.734.826.063 1.356-.282 1.395-.797.381.317.592.745.667 1.13.777.165 1.631.257 2.526.257.896 0 1.744-.094 2.515-.26.057-.385.247-.811.612-1.127.063.515.618.862 1.433.797 1.083-.085 2.328-1.72 1.49-3.735-.056-.133-.337-.125-.365.011-.17.828-1.404 1.897-2.066 2.164-.263.106-.414.28-.471.475-.84.29-1.915.492-3.176.492-1.26 0-2.345-.2-3.198-.49zm12.28-1.399c-1.25.428-1.917 1.28-2.189 2.504-.549 2.48-4.187 3.29-6.921 3.29-2.735 0-6.373-.81-6.923-3.29-.267-1.204-.917-2.046-2.125-2.482-.318-.115-.615.222-.467.534 1.287 2.71 1.12 7.379 4.216 8.633 1.224.87 2.154.052 3.09 1.457.645-.708.107-1.787.015-1.96l.02-.002c.278.186 2.187.995 1.613 2.548 1.39-.572 2.52-1.706 2.879-2.931.423.368.465 1.143.3 1.769 0 0 1.706.066 3.918-2.088 1.96-1.907 1.944-5.018 3.042-7.458a.382.382 0 0 0-.468-.524zm29.32-23.313c1.246 6.992.828 17.139-7.213 26.393-.222-1.077-.475-1.46-.475-1.46 0 .001-2.52 5.081-17.632 10.519 0 0-.092-.332-.753-1.185-2.319 3.448-2.508 5.838-9.096 8.276.193-.671.157-1.49-.375-1.918-.449 1.422-1.86 2.507-3.104 3.295.144-1.534-1.994-3.062-1.994-3.062s.376 1.317-.528 2.487c-3.545-4.636-7.42-3.113-9.597-9.083-.661.852-.668 1.19-.668 1.19-15.112-5.438-17.547-10.518-17.547-10.518s-.253.382-.475 1.46c-8.04-9.255-8.459-19.402-7.214-26.394l-.825.555c.713-6.718 3.783-11.55 3.783-11.55-.34-.066-1.152.108-1.152.108s.937-2.215 1.972-3.761c-8.575-16.152 5.395-25.49 16.878-17.74 3.06-1.11 8.578-1.87 13.56-.837-.247-.44-.43-.883-.43-.883 1.832.23 3.548 1.1 4.55 1.576 1.002-.476 2.718-1.346 4.55-1.576 0 0-.183.443-.429.883 4.981-1.032 10.499-.274 13.559.838 11.483-7.75 25.453 1.587 16.879 17.739 1.034 1.547 1.971 3.761 1.971 3.761s-.811-.174-1.15-.108c0 0 3.068 4.832 3.78 11.55l-.824-.555zm-27.617-6.101a.855.855 0 0 0-.446-.709 2.479 2.479 0 0 1-1.218 1.042.857.857 0 0 0 1.664-.333zm4.055 1.039s-.496-.998-1.886-1.16c.244 1.896-1.476 2.65-2.893 2.43-.643-.099-1.356-.233-1.45.963-1.301-1.985-3.444-2.984-2.713-4.64 1.813 3.102 4.437-1.139 4.437-1.139 1.023-.377 4.408.455 4.505 3.546zm6.677 9.89c5.052-4.859 4.013-12.818 4.013-12.818s4.152 4.694.851 14.7c-.447-.505-.988-.97-1.614-1.256.775 4.507-2.38 8.936-2.38 8.936-.554-7.796-3.873-10.233-3.873-10.233s1.65-.121 3.003.67z" fill="#042546"/></g></svg>